<?xml version="1.0" encoding="UTF-8"?>
<svg id="Layer_1" data-name="Layer 1" xmlns="http://www.w3.org/2000/svg" viewBox="0 0 500 500">
  <defs>
    <style>
      .cls-1 {
        fill: #00f414;
        stroke-width: 0px;
      }
    </style>
  </defs>
  <path class="cls-1" d="M7.5,2.5h156.67v151.67c0,5.52-4.48,10-10,10H2.5V7.5c0-2.76,2.24-5,5-5Z"/>
  <path class="cls-1" d="M169.17,2.5h161.67v136.67c0,13.81-11.19,25-25,25h-111.67c-13.81,0-25-11.19-25-25V2.5Z"/>
  <path class="cls-1" d="M335.83,2.5h156.67c2.76,0,5,2.24,5,5v156.67h-151.67c-5.52,0-10-4.48-10-10V2.5Z"/>
  <path class="cls-1" d="M2.5,169.17h136.67c13.81,0,25,11.19,25,25v111.67c0,13.81-11.19,25-25,25H2.5v-161.67Z"/>
  <rect class="cls-1" x="169.17" y="169.17" width="161.67" height="161.67" rx="34.52" ry="34.52"/>
  <path class="cls-1" d="M360.83,169.17h136.67v161.67h-136.67c-13.81,0-25-11.19-25-25v-111.67c0-13.81,11.19-25,25-25Z"/>
  <path class="cls-1" d="M2.5,335.83h151.67c5.52,0,10,4.48,10,10v151.67H7.5c-2.76,0-5-2.24-5-5v-156.67Z"/>
  <path class="cls-1" d="M194.17,335.83h111.67c13.81,0,25,11.19,25,25v136.67h-161.67v-136.67c0-13.81,11.19-25,25-25Z"/>
  <path class="cls-1" d="M345.83,335.83h151.67v156.67c0,2.76-2.24,5-5,5h-156.67v-151.67c0-5.52,4.48-10,10-10Z"/>
</svg>